<?xml version="1.0" standalone="no"?>
<!DOCTYPE svg PUBLIC "-//W3C//DTD SVG 20010904//EN"
 "http://www.w3.org/TR/2001/REC-SVG-20010904/DTD/svg10.dtd">
<svg version="1.0" xmlns="http://www.w3.org/2000/svg"
 width="216.000000pt" height="216.000000pt" viewBox="0 0 216.000000 216.000000"
 preserveAspectRatio="xMidYMid meet">

<g transform="translate(0.000000,216.000000) scale(0.100000,-0.100000)"
fill="#000000" stroke="none">
<path d="M875 2126 c-276 -56 -539 -232 -681 -457 -202 -320 -228 -700 -72
-1028 176 -367 542 -601 944 -601 399 0 747 205 935 550 87 159 120 296 120
500 1 235 -45 389 -177 593 -51 78 -182 214 -259 270 -111 79 -269 144 -415
173 -90 17 -309 17 -395 0z m264 -353 c16 -16 53 -73 82 -128 73 -140 184
-350 254 -480 18 -33 77 -145 130 -250 54 -104 104 -199 112 -210 7 -11 13
-37 13 -58 0 -81 -104 -129 -163 -74 -14 12 -51 72 -82 132 -88 167 -143 271
-193 365 -40 75 -123 235 -186 357 -11 23 -25 41 -31 39 -5 -1 -31 -44 -58
-94 l-48 -92 40 0 c81 0 131 -39 131 -103 0 -89 -35 -107 -207 -107 -71 0
-143 4 -162 10 -45 13 -71 45 -71 89 0 36 10 60 87 201 38 70 160 302 190 362
36 70 111 89 162 41z m100 -816 c14 -6 33 -27 44 -45 24 -40 17 -74 -23 -113
l-28 -29 -259 0 c-142 0 -263 -4 -269 -8 -6 -4 -29 -40 -50 -81 -52 -99 -85
-131 -132 -131 -55 1 -102 47 -102 100 0 22 99 226 132 273 11 16 30 32 42 37
35 14 617 12 645 -3z"/>
</g>
</svg>
